solid batterypack
facet normal 0.0 0.0 -1.0
outer loop
vertex 64.0 0.0 0.0
vertex 0.0 -53.0 0.0
vertex 0.0 0.0 0.0
endloop
endfacet
facet normal 0.0 0.0 -1.0
outer loop
vertex 0.0 -53.0 0.0
vertex 64.0 0.0 0.0
vertex 64.0 -53.0 0.0
endloop
endfacet
facet normal 0.0 0.0 1.0
outer loop
vertex 64.0 -53.0 5.0
vertex 0.0 0.0 5.0
vertex 0.0 -53.0 5.0
endloop
endfacet
facet normal 0.0 0.0 1.0
outer loop
vertex 0.0 0.0 5.0
vertex 64.0 -53.0 5.0
vertex 64.0 0.0 5.0
endloop
endfacet
facet normal -0.0 -1.0 -0.0
outer loop
vertex 64.0 -53.0 5.0
vertex 0.0 -53.0 0.0
vertex 64.0 -53.0 0.0
endloop
endfacet
facet normal -0.0 -1.0 -0.0
outer loop
vertex 0.0 -53.0 0.0
vertex 64.0 -53.0 5.0
vertex 0.0 -53.0 5.0
endloop
endfacet
facet normal -1.0 0.0 0.0
outer loop
vertex 0.0 0.0 5.0
vertex 0.0 -53.0 0.0
vertex 0.0 -53.0 5.0
endloop
endfacet
facet normal -1.0 0.0 0.0
outer loop
vertex 0.0 -53.0 0.0
vertex 0.0 0.0 5.0
vertex 0.0 0.0 0.0
endloop
endfacet
facet normal -0.0 1.0 0.0
outer loop
vertex 0.0 0.0 5.0
vertex 64.0 0.0 0.0
vertex 0.0 0.0 0.0
endloop
endfacet
facet normal -0.0 1.0 0.0
outer loop
vertex 64.0 0.0 0.0
vertex 0.0 0.0 5.0
vertex 64.0 0.0 5.0
endloop
endfacet
facet normal 1.0 0.0 0.0
outer loop
vertex 64.0 0.0 0.0
vertex 64.0 -53.0 5.0
vertex 64.0 -53.0 0.0
endloop
endfacet
facet normal 1.0 0.0 0.0
outer loop
vertex 64.0 -53.0 5.0
vertex 64.0 0.0 0.0
vertex 64.0 0.0 5.0
endloop
endfacet
endsolid batterypack
