solid usb
facet normal -0.0 -0.0 1.0
outer loop
vertex 7.6426147893515 7.50894568234718 0.0
vertex 6.39261478935149 9.00894568234716 0.0
vertex 6.39261478935149 7.50894568234718 0.0
endloop
endfacet
facet normal -0.0 -0.0 1.0
outer loop
vertex 6.39261478935149 9.00894568234716 0.0
vertex 7.6426147893515 7.50894568234718 0.0
vertex 8.0426147893515 9.00894568234716 0.0
endloop
endfacet
facet normal -0.0 -0.0 1.0
outer loop
vertex 8.0426147893515 9.00894568234716 0.0
vertex 7.6426147893515 7.50894568234718 0.0
vertex 10.0176147893515 6.00894568234716 0.0
endloop
endfacet
facet normal -0.0 -0.0 1.0
outer loop
vertex 8.0426147893515 9.00894568234716 0.0
vertex 10.0176147893515 6.00894568234716 0.0
vertex 8.0426147893515 10.6089456823472 0.0
endloop
endfacet
facet normal -0.0 -0.0 1.0
outer loop
vertex 17.1426147893515 7.50894568234718 0.0
vertex 16.8426147893515 9.00894568234716 0.0
vertex 14.7676147893515 6.00894568234716 0.0
endloop
endfacet
facet normal -0.0 -0.0 1.0
outer loop
vertex 16.8426147893515 9.00894568234716 0.0
vertex 17.1426147893515 7.50894568234718 0.0
vertex 18.3926147893515 9.00894568234716 0.0
endloop
endfacet
facet normal -0.0 -0.0 1.0
outer loop
vertex 18.3926147893515 9.00894568234716 0.0
vertex 17.1426147893515 7.50894568234718 0.0
vertex 18.3926147893515 7.50894568234718 0.0
endloop
endfacet
facet normal -0.0 -0.0 1.0
outer loop
vertex 8.0426147893515 10.6089456823472 0.0
vertex 6.39261478935149 11.8089456823472 0.0
vertex 6.39261478935149 10.6089456823472 0.0
endloop
endfacet
facet normal -0.0 -0.0 1.0
outer loop
vertex 6.39261478935149 11.8089456823472 0.0
vertex 8.0426147893515 10.6089456823472 0.0
vertex 18.3926147893515 11.8089456823472 0.0
endloop
endfacet
facet normal -0.0 -0.0 1.0
outer loop
vertex 18.3926147893515 11.8089456823472 0.0
vertex 8.0426147893515 10.6089456823472 0.0
vertex 10.0176147893515 6.00894568234716 0.0
endloop
endfacet
facet normal -0.0 -0.0 1.0
outer loop
vertex 18.3926147893515 11.8089456823472 0.0
vertex 10.0176147893515 6.00894568234716 0.0
vertex 16.8426147893515 10.6089456823472 0.0
endloop
endfacet
facet normal -0.0 -0.0 1.0
outer loop
vertex 16.8426147893515 10.6089456823472 0.0
vertex 10.0176147893515 6.00894568234716 0.0
vertex 14.7676147893515 6.00894568234716 0.0
endloop
endfacet
facet normal -0.0 -0.0 1.0
outer loop
vertex 16.8426147893515 10.6089456823472 0.0
vertex 14.7676147893515 6.00894568234716 0.0
vertex 16.8426147893515 9.00894568234716 0.0
endloop
endfacet
facet normal -0.0 -0.0 1.0
outer loop
vertex 18.3926147893515 11.8089456823472 0.0
vertex 16.8426147893515 10.6089456823472 0.0
vertex 18.3926147893515 10.6089456823472 0.0
endloop
endfacet
facet normal 0.533992991387987 0.845488903030968 -0.0
outer loop
vertex 7.6426147893515 7.50894568234718 4.7625
vertex 10.0176147893515 6.00894568234716 0.0
vertex 7.6426147893515 7.50894568234718 0.0
endloop
endfacet
facet normal 0.533992991387987 0.845488903030968 -0.0
outer loop
vertex 10.0176147893515 6.00894568234716 0.0
vertex 7.6426147893515 7.50894568234718 4.7625
vertex 10.0176147893515 6.00894568234716 4.7625
endloop
endfacet
facet normal -0.0 1.0 -0.0
outer loop
vertex 10.0176147893515 6.00894568234716 4.7625
vertex 14.7676147893515 6.00894568234716 0.0
vertex 10.0176147893515 6.00894568234716 0.0
endloop
endfacet
facet normal -0.0 1.0 -0.0
outer loop
vertex 14.7676147893515 6.00894568234716 0.0
vertex 10.0176147893515 6.00894568234716 4.7625
vertex 14.7676147893515 6.00894568234716 4.7625
endloop
endfacet
facet normal -0.533992991387987 0.845488903030968 -0.0
outer loop
vertex 14.7676147893515 6.00894568234716 4.7625
vertex 17.1426147893515 7.50894568234718 0.0
vertex 14.7676147893515 6.00894568234716 0.0
endloop
endfacet
facet normal -0.533992991387987 0.845488903030968 -0.0
outer loop
vertex 17.1426147893515 7.50894568234718 0.0
vertex 14.7676147893515 6.00894568234716 4.7625
vertex 17.1426147893515 7.50894568234718 4.7625
endloop
endfacet
facet normal 0.0 0.0 -1.0
outer loop
vertex 17.1426147893515 7.50894568234718 4.7625
vertex 10.0176147893515 6.00894568234716 4.7625
vertex 7.6426147893515 7.50894568234718 4.7625
endloop
endfacet
facet normal 0.0 0.0 -1.0
outer loop
vertex 10.0176147893515 6.00894568234716 4.7625
vertex 17.1426147893515 7.50894568234718 4.7625
vertex 14.7676147893515 6.00894568234716 4.7625
endloop
endfacet
facet normal 1.0 0.0 0.0
outer loop
vertex 8.0426147893515 10.6089456823472 0.0
vertex 8.0426147893515 9.00894568234716 4.7625
vertex 8.0426147893515 9.00894568234716 0.0
endloop
endfacet
facet normal 1.0 0.0 0.0
outer loop
vertex 8.0426147893515 9.00894568234716 4.7625
vertex 8.0426147893515 10.6089456823472 0.0
vertex 8.0426147893515 10.6089456823472 4.7625
endloop
endfacet
facet normal -1.0 0.0 0.0
outer loop
vertex 16.8426147893515 10.6089456823472 4.7625
vertex 16.8426147893515 9.00894568234716 0.0
vertex 16.8426147893515 9.00894568234716 4.7625
endloop
endfacet
facet normal -1.0 0.0 0.0
outer loop
vertex 16.8426147893515 9.00894568234716 0.0
vertex 16.8426147893515 10.6089456823472 4.7625
vertex 16.8426147893515 10.6089456823472 0.0
endloop
endfacet
facet normal 0.0 0.0 -1.0
outer loop
vertex 16.8426147893515 10.6089456823472 4.7625
vertex 8.0426147893515 9.00894568234716 4.7625
vertex 8.0426147893515 10.6089456823472 4.7625
endloop
endfacet
facet normal 0.0 0.0 -1.0
outer loop
vertex 8.0426147893515 9.00894568234716 4.7625
vertex 16.8426147893515 10.6089456823472 4.7625
vertex 16.8426147893515 9.00894568234716 4.7625
endloop
endfacet
facet normal 1.0 -0.0 -0.0
outer loop
vertex 6.39261478935149 9.00894568234716 0.0
vertex 6.39261478935149 7.50894568234718 7.9375
vertex 6.39261478935149 7.50894568234718 0.0
endloop
endfacet
facet normal 1.0 -0.0 -0.0
outer loop
vertex 6.39261478935149 7.50894568234718 7.9375
vertex 6.39261478935149 9.00894568234716 0.0
vertex 6.39261478935149 9.00894568234716 7.9375
endloop
endfacet
facet normal -0.0 1.0 -0.0
outer loop
vertex 6.39261478935149 7.50894568234718 7.9375
vertex 7.6426147893515 7.50894568234718 0.0
vertex 6.39261478935149 7.50894568234718 0.0
endloop
endfacet
facet normal -0.0 1.0 -0.0
outer loop
vertex 7.6426147893515 7.50894568234718 0.0
vertex 6.39261478935149 7.50894568234718 7.9375
vertex 7.6426147893515 7.50894568234718 4.7625
endloop
endfacet
facet normal -0.0 1.0 -0.0
outer loop
vertex 7.6426147893515 7.50894568234718 4.7625
vertex 6.39261478935149 7.50894568234718 7.9375
vertex 17.1426147893515 7.50894568234718 4.7625
endloop
endfacet
facet normal -0.0 1.0 -0.0
outer loop
vertex 17.1426147893515 7.50894568234718 4.7625
vertex 18.3926147893515 7.50894568234718 0.0
vertex 17.1426147893515 7.50894568234718 0.0
endloop
endfacet
facet normal -0.0 1.0 -0.0
outer loop
vertex 18.3926147893515 7.50894568234718 0.0
vertex 17.1426147893515 7.50894568234718 4.7625
vertex 18.3926147893515 7.50894568234718 7.9375
endloop
endfacet
facet normal -0.0 1.0 -0.0
outer loop
vertex 18.3926147893515 7.50894568234718 7.9375
vertex 17.1426147893515 7.50894568234718 4.7625
vertex 6.39261478935149 7.50894568234718 7.9375
endloop
endfacet
facet normal -1.0 0.0 0.0
outer loop
vertex 18.3926147893515 9.00894568234716 7.9375
vertex 18.3926147893515 7.50894568234718 0.0
vertex 18.3926147893515 7.50894568234718 7.9375
endloop
endfacet
facet normal -1.0 0.0 0.0
outer loop
vertex 18.3926147893515 7.50894568234718 0.0
vertex 18.3926147893515 9.00894568234716 7.9375
vertex 18.3926147893515 9.00894568234716 0.0
endloop
endfacet
facet normal 0.0 -1.0 0.0
outer loop
vertex 18.3926147893515 9.00894568234716 7.9375
vertex 16.8426147893515 9.00894568234716 0.0
vertex 18.3926147893515 9.00894568234716 0.0
endloop
endfacet
facet normal 0.0 -1.0 0.0
outer loop
vertex 16.8426147893515 9.00894568234716 0.0
vertex 18.3926147893515 9.00894568234716 7.9375
vertex 16.8426147893515 9.00894568234716 4.7625
endloop
endfacet
facet normal 0.0 -1.0 0.0
outer loop
vertex 16.8426147893515 9.00894568234716 4.7625
vertex 18.3926147893515 9.00894568234716 7.9375
vertex 8.0426147893515 9.00894568234716 4.7625
endloop
endfacet
facet normal 0.0 -1.0 0.0
outer loop
vertex 8.0426147893515 9.00894568234716 4.7625
vertex 6.39261478935149 9.00894568234716 0.0
vertex 8.0426147893515 9.00894568234716 0.0
endloop
endfacet
facet normal 0.0 -1.0 0.0
outer loop
vertex 6.39261478935149 9.00894568234716 0.0
vertex 8.0426147893515 9.00894568234716 4.7625
vertex 6.39261478935149 9.00894568234716 7.9375
endloop
endfacet
facet normal 0.0 -1.0 0.0
outer loop
vertex 6.39261478935149 9.00894568234716 7.9375
vertex 8.0426147893515 9.00894568234716 4.7625
vertex 18.3926147893515 9.00894568234716 7.9375
endloop
endfacet
facet normal 0.0 0.0 -1.0
outer loop
vertex 18.3926147893515 9.00894568234716 7.9375
vertex 6.39261478935149 7.50894568234718 7.9375
vertex 6.39261478935149 9.00894568234716 7.9375
endloop
endfacet
facet normal 0.0 0.0 -1.0
outer loop
vertex 6.39261478935149 7.50894568234718 7.9375
vertex 18.3926147893515 9.00894568234716 7.9375
vertex 18.3926147893515 7.50894568234718 7.9375
endloop
endfacet
facet normal -1.0 0.0 0.0
outer loop
vertex 18.3926147893515 11.8089456823472 7.9375
vertex 18.3926147893515 10.6089456823472 0.0
vertex 18.3926147893515 10.6089456823472 7.9375
endloop
endfacet
facet normal -1.0 0.0 0.0
outer loop
vertex 18.3926147893515 10.6089456823472 0.0
vertex 18.3926147893515 11.8089456823472 7.9375
vertex 18.3926147893515 11.8089456823472 0.0
endloop
endfacet
facet normal 0.0 -1.0 0.0
outer loop
vertex 18.3926147893515 11.8089456823472 7.9375
vertex 6.39261478935149 11.8089456823472 0.0
vertex 18.3926147893515 11.8089456823472 0.0
endloop
endfacet
facet normal 0.0 -1.0 0.0
outer loop
vertex 6.39261478935149 11.8089456823472 0.0
vertex 18.3926147893515 11.8089456823472 7.9375
vertex 6.39261478935149 11.8089456823472 7.9375
endloop
endfacet
facet normal 1.0 -0.0 -0.0
outer loop
vertex 6.39261478935149 11.8089456823472 0.0
vertex 6.39261478935149 10.6089456823472 7.9375
vertex 6.39261478935149 10.6089456823472 0.0
endloop
endfacet
facet normal 1.0 -0.0 -0.0
outer loop
vertex 6.39261478935149 10.6089456823472 7.9375
vertex 6.39261478935149 11.8089456823472 0.0
vertex 6.39261478935149 11.8089456823472 7.9375
endloop
endfacet
facet normal 0.0 1.0 0.0
outer loop
vertex 6.39261478935149 10.6089456823472 7.9375
vertex 8.0426147893515 10.6089456823472 0.0
vertex 6.39261478935149 10.6089456823472 0.0
endloop
endfacet
facet normal 0.0 1.0 0.0
outer loop
vertex 8.0426147893515 10.6089456823472 0.0
vertex 6.39261478935149 10.6089456823472 7.9375
vertex 8.0426147893515 10.6089456823472 4.7625
endloop
endfacet
facet normal 0.0 1.0 0.0
outer loop
vertex 8.0426147893515 10.6089456823472 4.7625
vertex 6.39261478935149 10.6089456823472 7.9375
vertex 16.8426147893515 10.6089456823472 4.7625
endloop
endfacet
facet normal 0.0 1.0 0.0
outer loop
vertex 16.8426147893515 10.6089456823472 4.7625
vertex 18.3926147893515 10.6089456823472 0.0
vertex 16.8426147893515 10.6089456823472 0.0
endloop
endfacet
facet normal 0.0 1.0 0.0
outer loop
vertex 18.3926147893515 10.6089456823472 0.0
vertex 16.8426147893515 10.6089456823472 4.7625
vertex 18.3926147893515 10.6089456823472 7.9375
endloop
endfacet
facet normal 0.0 1.0 0.0
outer loop
vertex 18.3926147893515 10.6089456823472 7.9375
vertex 16.8426147893515 10.6089456823472 4.7625
vertex 6.39261478935149 10.6089456823472 7.9375
endloop
endfacet
facet normal 0.0 0.0 -1.0
outer loop
vertex 18.3926147893515 11.8089456823472 7.9375
vertex 6.39261478935149 10.6089456823472 7.9375
vertex 6.39261478935149 11.8089456823472 7.9375
endloop
endfacet
facet normal 0.0 0.0 -1.0
outer loop
vertex 6.39261478935149 10.6089456823472 7.9375
vertex 18.3926147893515 11.8089456823472 7.9375
vertex 18.3926147893515 10.6089456823472 7.9375
endloop
endfacet
endsolid usb
